# xmcd CD database file
#
# Track frame offsets:
#	150
#	14052
#	28919
#	45576
#	68727
#	85883
#	113010
#	130377
#	143333
#	155818
#	207190
#	223928
#	237134
#
# Disc length: 3382 seconds
#
# Revision: 2
# Processed by: cddbd v1.5.2PL0 Copyright (c) Steve Scherf et al.
# Submitted via: CDex 1.51
#
DISCID=b90d340d
DTITLE=Free Human Zoo - Freedom Now !
DYEAR=2016
DGENRE=Jazz
TTITLE0=Free Human Zoo - Une nuit, cette présence
TTITLE1=Free Human Zoo - Danse de l'ivresse, coprs et esprit
TTITLE2=Free Human Zoo - Valse ascensionnelle
TTITLE3=Free Human Zoo - Magie d'un sourire
TTITLE4=Free Human Zoo - Rupture des temps, cassure du temps
TTITLE5=Free Human Zoo - L'instant vient
TTITLE6=Free Human Zoo - Aspettando
TTITLE7=Free Human Zoo - L'horloge atemporelle
TTITLE8=Free Human Zoo - Pluie, vapeur, sécheresse
TTITLE9=Free Human Zoo - Marche des méchants
TTITLE10=Free Human Zoo - Valse des enfants
TTITLE11=Free Human Zoo - Solitude
TTITLE12=Free Human Zoo - Des pleurs aux rires
EXTD=YEAR: 2016
EXTT0=
EXTT1=
EXTT2=
EXTT3=
EXTT4=
EXTT5=
EXTT6=
EXTT7=
EXTT8=
EXTT9=
EXTT10=
EXTT11=
EXTT12=
PLAYORDER=
